<svg xmlns="http://www.w3.org/2000/svg" width="72" height="72" viewBox="0 0 72 72">
    <defs>
        <style>
            .prefix__cls-2{fill:#343434}.prefix__cls-5{opacity:.6}
        </style>
    </defs>
    <g id="prefix__Group_3803" data-name="Group 3803" transform="translate(-361 -734)">
        <g id="prefix__Rectangle_5719" fill="#fff" stroke="#eecf09" stroke-width="2px" data-name="Rectangle 5719" transform="translate(361 734)">
            <rect width="72" height="72" stroke="none" rx="8"/>
            <rect width="70" height="70" x="1" y="1" fill="none" rx="7"/>
        </g>
        <g id="prefix__noun_gel_and_soap_3181696" data-name="noun_gel and soap_3181696" transform="translate(375.615 748.511)">
            <path id="prefix__Path_53004" d="M34.914 13.74a8.616 8.616 0 0 0-2.09 6.866v.021a33.179 33.179 0 0 1 0 9.082l1.256.17a34.44 34.44 0 0 0 0-9.4v-.02a7.34 7.34 0 0 1-.047-1.549h15.32a7.317 7.317 0 0 1-.044 1.533v.018a34.488 34.488 0 0 0 0 9.42l.388 2.8H36.628v1.252h13.241l.115.83a3.1 3.1 0 0 1-.752 2.481 3.184 3.184 0 0 1-2.387 1.072h-10.3v1.252h10.3a4.457 4.457 0 0 0 3.341-1.5 4.347 4.347 0 0 0 1.054-3.474l-.674-4.885a33.241 33.241 0 0 1 0-9.066v-.018a8.613 8.613 0 0 0-2.087-6.884 8.79 8.79 0 0 0-4.248-2.641V7.635h.634a.63.63 0 0 0 .634-.626V3.878A1.892 1.892 0 0 0 43.6 2H36a1.892 1.892 0 0 0-1.9 1.878v1.253a.63.63 0 0 0 .634.626H37.9v1.252a.63.63 0 0 0 .634.626h.634V11.1a8.79 8.79 0 0 0-4.254 2.64zm12.61.823a7.393 7.393 0 0 1 1.621 3.091h-14.9a7.386 7.386 0 0 1 1.621-3.091 7.555 7.555 0 0 1 5.665-2.545h.324a7.556 7.556 0 0 1 5.669 2.545zM35.361 4.5v-.622a.631.631 0 0 1 .634-.626h7.6a.631.631 0 0 1 .634.626v2.5h-5.067v-.621h1.9V4.5h-5.7zm5.069 3.135h2.534v3.207a8.882 8.882 0 0 0-1.1-.076h-.324a8.882 8.882 0 0 0-1.1.076z" class="prefix__cls-2" data-name="Path 53004" transform="translate(-11.385)"/>
            <path id="prefix__Path_53005" d="M2.873 55.665a.633.633 0 0 0 .634.634h20.274a.633.633 0 0 0 .634-.634V51.23a.633.633 0 0 0-.634-.634h-.046a4.782 4.782 0 0 0-5.682-4.062l-3.718.744a3.5 3.5 0 0 1-1.381 0l-3.718-.744A4.782 4.782 0 0 0 3.553 50.6h-.046a.633.633 0 0 0-.634.634zm20.274-.634H4.14v-3.168h19.007zM6.062 48.507a3.5 3.5 0 0 1 2.923-.73l3.718.744a4.771 4.771 0 0 0 1.879 0l3.718-.744a3.513 3.513 0 0 1 4.15 2.819H4.836a3.5 3.5 0 0 1 1.226-2.089z" class="prefix__cls-2" data-name="Path 53005" transform="translate(0 -16.729)"/>
            <path id="prefix__Path_53006" d="M2.873 35.8a3.8 3.8 0 1 0 3.8-3.8 3.805 3.805 0 0 0-3.8 3.8zm6.336 0a2.534 2.534 0 1 1-2.534-2.534A2.537 2.537 0 0 1 9.209 35.8z" class="prefix__cls-2" data-name="Path 53006" transform="translate(0 -11.271)"/>
            <path id="prefix__Path_53007" d="M20.407 25.069a4.988 4.988 0 0 0 .047.688 3.168 3.168 0 0 0 .587 6.281v-1.267a1.9 1.9 0 1 1 .021-3.8h.009c.037.005.074.01.112.013a.634.634 0 0 0 .655-.815 3.8 3.8 0 0 1 5.81-4.223l.725-1.04a5.071 5.071 0 0 0-7.966 4.161z" class="prefix__cls-2" data-name="Path 53007" transform="translate(-5.651 -6.791)"/>
            <path id="prefix__Path_53008" d="M10.873 21.9a1.9 1.9 0 1 0 1.9-1.9 1.9 1.9 0 0 0-1.9 1.9zm2.534 0a.634.634 0 1 1-.634-.634.634.634 0 0 1 .634.634z" class="prefix__cls-2" data-name="Path 53008" transform="translate(-2.931 -6.744)"/>
            <path id="prefix__Path_53009" d="M10.774 9a1.9 1.9 0 1 0 1.9 1.9 1.9 1.9 0 0 0-1.9-1.9zm0 2.534a.634.634 0 1 1 .634-.634.634.634 0 0 1-.634.634z" class="prefix__cls-2" data-name="Path 53009" transform="translate(-2.199 -2.565)"/>
            <path id="prefix__Path_53010" d="M46.069 33h-2.535a.633.633 0 0 0-.634.634V34.9h-1.266a.633.633 0 0 0-.634.634v2.534a.633.633 0 0 0 .634.634H42.9v1.267a.633.633 0 0 0 .634.634h2.534a.633.633 0 0 0 .634-.634V38.7h1.267a.633.633 0 0 0 .634-.634v-2.532a.633.633 0 0 0-.634-.634H46.7v-1.266a.633.633 0 0 0-.631-.634zm1.267 3.168v1.267h-1.267a.633.633 0 0 0-.634.634v1.267h-1.267v-1.267a.633.633 0 0 0-.634-.634h-1.267v-1.267h1.267a.633.633 0 0 0 .634-.634v-1.267h1.267v1.267a.633.633 0 0 0 .634.634z" class="prefix__cls-2" data-name="Path 53010" transform="translate(-14.326 -11.647)"/>
        </g>
        <g id="prefix__Group_4275" data-name="Group 4275" transform="rotate(-180 215.538 400.817)" style="isolation:isolate">
            <g id="prefix__Group_3765" data-name="Group 3765" transform="translate(0 54.787)">
                <path id="prefix__Path_53060" fill="#ffea65" d="M5.173 10.848v-.055A6.315 6.315 0 0 0 0 4.9V0a11.173 11.173 0 0 1 10.03 10.792v.055z" data-name="Path 53060"/>
            </g>
            <g id="prefix__Group_3767" class="prefix__cls-5" data-name="Group 3767" transform="translate(55.942 53.885)">
                <path id="prefix__Path_53062" fill="#5dc1bd" d="M6.634 7.667L0 3.833 6.634 0z" data-name="Path 53062"/>
            </g>
            <g id="prefix__Group_3768" class="prefix__cls-5" data-name="Group 3768" transform="translate(44.649)">
                <circle id="prefix__Ellipse_2700" cx="2.324" cy="2.324" r="2.324" fill="#00ace7" data-name="Ellipse 2700"/>
            </g>
        </g>
    </g>
</svg>
