<svg xmlns="http://www.w3.org/2000/svg" width="72" height="72" viewBox="0 0 72 72">
    <defs>
        <style>
            .prefix__cls-2{fill:#343434;stroke:#fff;stroke-width:.1px}.prefix__cls-5{opacity:.6}
        </style>
    </defs>
    <g id="prefix__Group_3808" data-name="Group 3808" transform="translate(-872 -734)">
        <g id="prefix__Rectangle_5722" fill="#fff" stroke="#eecf09" stroke-width="2px" data-name="Rectangle 5722" transform="translate(872 734)">
            <rect width="72" height="72" stroke="none" rx="8"/>
            <rect width="70" height="70" x="1" y="1" fill="none" rx="7"/>
        </g>
        <g id="prefix__noun_protection_3377799" transform="translate(889.93 751.92)">
            <path id="prefix__Path_53026" d="M72.157 85.122h-4.379l-5.608-3.235a1.752 1.752 0 0 0-1.788 3l.353.223H54.45a1.633 1.633 0 0 0-1.63 1.641 1.6 1.6 0 0 0 .136.647 1.627 1.627 0 0 0 0 2.963 1.613 1.613 0 0 0-.138.65 1.633 1.633 0 0 0 1.63 1.633h.752a1.613 1.613 0 0 0-.079.5 1.633 1.633 0 0 0 1.627 1.63h15.41a1.305 1.305 0 0 0 1.3-1.3v-7.061a1.311 1.311 0 0 0-1.301-1.291zm-15.919 8.026a.5.5 0 0 1 .5-.5h4.353a.565.565 0 0 0 0-1.13h-6.647a.5.5 0 0 1 0-1h6.314a.565.565 0 1 0 0-1.13h-7.127a.5.5 0 0 1 0-1h7.127a.565.565 0 1 0 0-1.13H54.45a.5.5 0 0 1 0-1h8.065l.034.023a3.786 3.786 0 0 0 3.766 3.461.565.565 0 1 0 0-1.13 2.653 2.653 0 0 1-2.65-2.65.464.464 0 0 0 0-.065v-.048a.359.359 0 0 0-.017-.051.283.283 0 0 0-.017-.051.258.258 0 0 0-.025-.048l-.025-.048-.034-.042-.037-.042-.034-.028-.054-.042-2.432-1.55a.622.622 0 1 1 .616-1.082l5.74 3.314h.028l.057.025.051.017h4.675a.184.184 0 0 1 .184.172v7.063a.172.172 0 0 1-.172.172H56.746a.5.5 0 0 1-.508-.48z" class="prefix__cls-2" data-name="Path 53026" transform="translate(-37.31 -58.618)"/>
            <path id="prefix__Path_53027" d="M72.853 8.214a5.836 5.836 0 0 0 .788-.054 3.54 3.54 0 0 0 2.726-1.978c.52-1.04.78-1.209.89-1.218s.373.178.893 1.218a3.537 3.537 0 0 0 2.726 1.978 5.805 5.805 0 0 0 .777.054 3.466 3.466 0 0 0 3.52-2.093c0-.037 1.2-3.673-.444-4.961C83.757.405 81.243.03 77.254.03c-3.992-.008-6.506.376-7.466 1.122-1.647 1.283-.455 4.924-.444 4.961a3.436 3.436 0 0 0 3.509 2.101zm-2.382-6.162c.729-.565 3.271-.9 6.786-.9s6.062.336 6.78.9.393 2.729.065 3.712-1.562 1.48-3.088 1.274a2.441 2.441 0 0 1-1.865-1.35c-.438-.879-.983-1.814-1.87-1.839h-.062c-.887.025-1.429.961-1.87 1.839a2.441 2.441 0 0 1-1.865 1.35c-1.526.2-2.766-.308-3.088-1.274s-.646-3.149.077-3.712z" class="prefix__cls-2" data-name="Path 53027" transform="translate(-49.448 -.021)"/>
            <path id="prefix__Path_53028" d="M15.569 22.6a.565.565 0 0 0 .534-.565l-.071-11.04a.461.461 0 0 0 0-.088A3.517 3.517 0 0 0 13.15 8l-.8-.133a18.228 18.228 0 0 0-.042-4A4.3 4.3 0 0 0 8.074 0a4.3 4.3 0 0 0-4.238 3.862 18.2 18.2 0 0 0-.04 4L3 8a3.517 3.517 0 0 0-2.879 2.9v.085L0 22.035a.565.565 0 0 0 .534.565l2.045.113L2.424 35.6a.565.565 0 0 0 .565.565h10.17a.565.565 0 0 0 .565-.565l-.164-12.887zM14.9 11.046l.07 10.454-1.413.082-.116-9.433a.565.565 0 0 0-.565-.565.565.565 0 0 0-.565.565l.062 5.113H8.639v-8.5h2.206l2.11.353a2.387 2.387 0 0 1 1.945 1.931zM6.944 5.65c0-1.825.534-1.978 1.13-1.978S9.2 3.825 9.2 5.65c0 1.167-.6 1.978-1.13 1.978S6.944 6.817 6.944 5.65zm-1.978-1.6a3.191 3.191 0 0 1 3.108-2.92 3.181 3.181 0 0 1 3.108 2.918 17.094 17.094 0 0 1 .04 3.627l-.234-.048a.52.52 0 0 0-.093 0H9.828a3.9 3.9 0 0 0 .506-1.978c0-.768 0-3.108-2.26-3.108s-2.26 2.341-2.26 3.109a3.9 3.9 0 0 0 .5 1.978H5.252a.52.52 0 0 0-.093 0l-.237.04a16.888 16.888 0 0 1 .037-3.619zM1.13 21.5l.11-10.453a2.384 2.384 0 0 1 1.944-1.934L5.3 8.758h2.209v8.509H3.774l.062-5.119a.565.565 0 0 0-.565-.565.565.565 0 0 0-.565.565l-.116 9.436zm2.624-3.108h3.755V35.03H3.554zM8.639 35.03V18.4h3.746l.2 16.634z" class="prefix__cls-2" data-name="Path 53028"/>
            <path id="prefix__Path_53029" d="M84.764 36.653a1.661 1.661 0 0 0-1.446-.283 2.739 2.739 0 0 0-1.5 1.509c-.362-.11-.754-.263-1.17-.424a9.612 9.612 0 0 0-3.317-.847 10.966 10.966 0 0 0-3.715.98c-.283.107-.534.209-.763.283a2.747 2.747 0 0 0-1.5-1.5 1.661 1.661 0 0 0-1.446.283 2.634 2.634 0 0 0-.9 2.26c0 1.859 2.11 5.221 2.367 5.625a7.3 7.3 0 0 0 .887 1.978 7.883 7.883 0 0 0 10.159 0 7.783 7.783 0 0 0 .932-2.042c.373-.59 2.331-3.777 2.331-5.565a2.655 2.655 0 0 0-.919-2.257zm-14.179.9a.542.542 0 0 1 .455-.107c.325.093.633.565.822.969a4.184 4.184 0 0 0-1.22 2.348 5.393 5.393 0 0 1-.511-1.853 1.68 1.68 0 0 1 .454-1.356zm6.743 9.687a7.36 7.36 0 0 1-4.254-1.5 15.786 15.786 0 0 1-1.345-4.475 2.694 2.694 0 0 1 1.294-2.26c.3-.1.641-.234 1.006-.379a10.221 10.221 0 0 1 3.3-.9 8.738 8.738 0 0 1 2.907.777c.5.195.972.381 1.412.509a.616.616 0 0 1 .153.071l.045.025a3.068 3.068 0 0 1 1.1 2.305 15.9 15.9 0 0 1-1.359 4.322 7.261 7.261 0 0 1-4.259 1.506zm6.7-6.478a4.384 4.384 0 0 0-1.223-2.348c.189-.393.5-.876.822-.969a.542.542 0 0 1 .455.107 1.719 1.719 0 0 1 .455 1.356 5.444 5.444 0 0 1-.508 1.856z" class="prefix__cls-2" data-name="Path 53029" transform="translate(-49.507 -26.054)"/>
            <path id="prefix__Path_53030" d="M92.65 60.192a22.528 22.528 0 0 1-2.656.336 22.529 22.529 0 0 1-2.656-.336.565.565 0 1 0-.2 1.11 22.418 22.418 0 0 0 2.859.356 22.419 22.419 0 0 0 2.859-.356.565.565 0 1 0-.2-1.11z" class="prefix__cls-2" data-name="Path 53030" transform="translate(-62.168 -43.177)"/>
            <path id="prefix__Path_53031" d="M92.65 48.662a22.708 22.708 0 0 1-2.655.338 22.707 22.707 0 0 1-2.656-.333.565.565 0 1 0-.2 1.11 23.115 23.115 0 0 0 2.859.353 23.115 23.115 0 0 0 2.859-.353.565.565 0 1 0-.2-1.11z" class="prefix__cls-2" data-name="Path 53031" transform="translate(-62.168 -34.905)"/>
        </g>
        <g id="prefix__Group_4278" data-name="Group 4278" transform="rotate(90 101.818 837.818)" style="isolation:isolate">
            <g id="prefix__Group_3765" data-name="Group 3765" transform="translate(0 54.787)">
                <path id="prefix__Path_53060" fill="#ffea65" d="M5.173 10.848v-.055A6.315 6.315 0 0 0 0 4.9V0a11.173 11.173 0 0 1 10.03 10.792v.055z" data-name="Path 53060"/>
            </g>
            <g id="prefix__Group_3767" class="prefix__cls-5" data-name="Group 3767" transform="translate(55.942 53.885)">
                <path id="prefix__Path_53062" fill="#5dc1bd" d="M6.634 7.667L0 3.833 6.634 0z" data-name="Path 53062"/>
            </g>
            <g id="prefix__Group_3768" class="prefix__cls-5" data-name="Group 3768" transform="translate(44.649)">
                <circle id="prefix__Ellipse_2700" cx="2.324" cy="2.324" r="2.324" fill="#00ace7" data-name="Ellipse 2700"/>
            </g>
        </g>
    </g>
</svg>
