<svg xmlns="http://www.w3.org/2000/svg" width="72" height="72" viewBox="0 0 72 72">
    <defs>
        <style>
            .prefix__cls-5{opacity:.6}
        </style>
    </defs>
    <g id="prefix__Group_3804" data-name="Group 3804" transform="translate(-190 -734)">
        <g id="prefix__Rectangle_5718" fill="#fff" stroke="#eecf09" stroke-width="2px" data-name="Rectangle 5718" transform="translate(190 734)">
            <rect width="72" height="72" stroke="none" rx="8"/>
            <rect width="70" height="70" x="1" y="1" fill="none" rx="7"/>
        </g>
        <g id="prefix__noun_staff_of_asclepius_1632949_1_" data-name="noun_staff of asclepius_1632949(1)" transform="translate(206.832 749.941)">
            <path id="prefix__Path_53012" fill="#343434" stroke="#fff" stroke-width="0.2px" d="M27.435 4.414a3.032 3.032 0 0 0-3.028 3.028 1.817 1.817 0 0 1-1.817 1.817h-.606v-1.83a3.028 3.028 0 1 0-3.634 0v1.83h-.606a1.817 1.817 0 0 1-1.817-1.817A3.032 3.032 0 0 0 12.9 4.414H2v.606a3.028 3.028 0 0 0 2.478 2.972A3.028 3.028 0 0 0 6.9 10.414a3.028 3.028 0 0 0 2.972 2.478h8.478v6.056h-4.238a.606.606 0 1 1 0-1.211h1.211a1.817 1.817 0 1 0 0-3.634h-1.211a4.234 4.234 0 0 0-2.712 7.488 4.23 4.23 0 0 0 1.211 4.845 4.229 4.229 0 0 0 1.211 4.845 4.239 4.239 0 0 0 3.926 5.836h.606v1.211l1.792 1.832 1.842-1.832v-1.212h.606a4.233 4.233 0 0 0 3.924-5.837 4.214 4.214 0 0 0 1.211-4.845 4.214 4.214 0 0 0 1.211-4.845 4.233 4.233 0 0 0-2.716-7.489h-1.211a1.817 1.817 0 0 0 0 3.634h1.211a.606.606 0 0 1 0 1.211h-4.239v-6.053h8.478a3.028 3.028 0 0 0 2.972-2.478 3.028 3.028 0 0 0 2.422-2.422 3.028 3.028 0 0 0 2.479-2.972v-.606zM19.26 6.583a1.8 1.8 0 0 1-.908-1.563 1.817 1.817 0 1 1 3.634 0 1.8 1.8 0 0 1-.908 1.563l-.3.175v2.5h-1.216v-2.5zm-1.514 29.322a3.012 3.012 0 0 1-2.871-3.973 4.205 4.205 0 0 0 1.175.309 1.8 1.8 0 0 0-.121.635 1.817 1.817 0 0 0 1.817 1.817h.606a.606.606 0 1 1 0 1.211zm0-2.422a.606.606 0 1 1 0-1.211h.606v1.211zm1.817 4.345v-1.184a1.795 1.795 0 0 0 0-2.688v-1.684h1.211v5.557l-.606.662zm2.422-5.557h.606a.606.606 0 1 1 0 1.211h-.606zm.606 3.634h-.606v-1.211h.606a1.817 1.817 0 1 0 0-3.634h-6.057a3.013 3.013 0 0 1-2.871-3.973 4.2 4.2 0 0 0 1.175.309 1.8 1.8 0 0 0-.121.635 1.817 1.817 0 0 0 1.817 1.817h6.056a3.028 3.028 0 1 1 0 6.056zm1.209-7.267h-1.815v-1.211H23.8a.606.606 0 0 1 0 1.211zm-3.028 0h-1.21v-1.211h1.211zm-2.422 0h-1.816a.606.606 0 0 1 0-1.211h1.817zm7.537 1.582c-.045-.056-.089-.114-.137-.169a4.224 4.224 0 0 0-.756-.66 1.81 1.81 0 0 0-1.194-3.175h-8.477a3.012 3.012 0 0 1-2.871-3.974 4.2 4.2 0 0 0 1.168.312A1.817 1.817 0 0 0 15.323 25H23.8a3.024 3.024 0 0 1 2.087 5.216zm-.876-6.427h-3.026v-1.211h3.028a.606.606 0 1 1 0 1.211zm-4.239 0h-1.21v-1.211h1.211zm-2.422 0h-3.027a.606.606 0 0 1 0-1.211h3.028zm7.873-7.267h-1.21a.606.606 0 0 1 0-1.211h1.211a3.023 3.023 0 0 1 2.086 5.215 4.272 4.272 0 0 0-.892-.828 1.81 1.81 0 0 0-1.194-3.175zm-1.21 3.634a3.024 3.024 0 0 1 2.087 5.216 4.272 4.272 0 0 0-.893-.83 1.81 1.81 0 0 0-1.194-3.175h-10.9a3.028 3.028 0 1 1 0-6.056h1.211a.606.606 0 1 1 0 1.211h-1.212a1.817 1.817 0 1 0 0 3.634zm-4.239-1.211h-1.212v-6.057h1.211zM35.308 6.836h-4.845v1.212h4.128a1.817 1.817 0 0 1-1.705 1.211h-4.845v1.211h4.128a1.817 1.817 0 0 1-1.705 1.211H9.873a1.817 1.817 0 0 1-1.706-1.211H12.3V9.259H7.45a1.817 1.817 0 0 1-1.705-1.211h4.128V6.836H5.028a1.82 1.82 0 0 1-1.713-1.211H12.9a1.817 1.817 0 0 1 1.817 1.817 3.032 3.032 0 0 0 3.028 3.028h4.845a3.032 3.032 0 0 0 3.028-3.028 1.817 1.817 0 0 1 1.817-1.817h9.586a1.82 1.82 0 0 1-1.713 1.211z" data-name="Path 53012"/>
        </g>
        <g id="prefix__Group_4274" data-name="Group 4274" transform="rotate(90 -239.126 496.861)" style="isolation:isolate">
            <g id="prefix__Group_3765" data-name="Group 3765" transform="translate(0 54.787)">
                <path id="prefix__Path_53060" fill="#ffea65" d="M5.173 10.848v-.055A6.315 6.315 0 0 0 0 4.9V0a11.173 11.173 0 0 1 10.03 10.792v.055z" data-name="Path 53060"/>
            </g>
            <g id="prefix__Group_3767" class="prefix__cls-5" data-name="Group 3767" transform="translate(55.942 53.885)">
                <path id="prefix__Path_53062" fill="#5dc1bd" d="M6.634 7.667L0 3.833 6.634 0z" data-name="Path 53062"/>
            </g>
            <g id="prefix__Group_3768" class="prefix__cls-5" data-name="Group 3768" transform="translate(44.649)">
                <circle id="prefix__Ellipse_2700" cx="2.324" cy="2.324" r="2.324" fill="#00ace7" data-name="Ellipse 2700"/>
            </g>
        </g>
    </g>
</svg>
